<svg xmlns="http://www.w3.org/2000/svg" viewBox="0 0 64 64"><style>path{fill:#280505}@media(prefers-color-scheme:dark){path{fill:#9bb2d4}}</style><g transform="translate(6.774 6.000) scale(1.21015)"><path fill-rule="evenodd" d="M23.45,28.34 L24.12,28.34 Z M29.51,28.34 L30.65,28.34 Z M35.12,17.96 L35.15,17.98 L35.16,17.98 C38.40,19.63 41.69,22.87 41.69,27.98 C41.69,35.39 35.91,39.97 28.94,39.23 L28.90,39.22 C28.30,39.17 27.72,39.07 27.16,38.93 C26.86,38.88 26.56,38.82 26.26,38.74 L26.25,38.74 L26.25,38.74 L26.24,38.73 C25.53,39.58 24.69,40.34 23.72,40.93 C20.72,42.77 16.44,42.97 13.35,42.52 L12.94,42.45 L12.90,42.44 C6.07,41.43 0.00,36.69 0.00,28.47 C0.00,20.76 6.04,14.94 13.73,14.62 L13.79,14.62 L13.80,14.62 L13.86,14.62 L13.92,14.62 L13.93,14.62 L13.94,14.62 L13.95,14.62 L13.96,14.62 L13.97,14.62 L13.99,14.61 L13.99,14.61 L14.00,14.61 C14.26,14.61 14.54,14.61 14.84,14.61 L14.85,14.61 L14.85,14.61 L14.86,14.61 L14.86,14.61 L14.86,9.67 C14.82,6.49 13.27,3.60 10.83,1.77 L9.92,1.07 L9.91,1.06 C9.78,0.95 9.70,0.78 9.70,0.60 C9.70,0.27 9.97,0.00 10.30,0.00 C10.43,0.00 10.55,0.04 10.65,0.11 L10.66,0.12 L10.99,0.38 C11.22,0.58 11.46,0.77 11.72,0.95 L11.72,0.95 L11.72,0.95 L11.80,1.01 C12.72,1.65 13.75,2.15 14.86,2.45 L14.86,2.45 C15.40,2.60 15.96,2.71 16.54,2.77 C16.88,2.81 17.23,2.82 17.57,2.82 C18.60,2.78 19.60,2.69 20.70,2.31 C21.81,1.93 22.97,1.21 24.41,0.77 C26.75,0.04 29.32,0.10 31.68,0.73 C36.17,1.93 39.48,5.24 38.94,10.44 C38.57,14.10 36.23,16.03 33.90,17.31 L33.89,17.31 L33.78,17.37 C34.24,17.54 34.68,17.74 35.12,17.96 Z M15.34,31.32 C16.01,31.29 16.70,31.32 17.42,31.50 C18.23,31.69 19.07,32.06 20.02,32.74 C20.32,32.95 20.62,33.19 20.93,33.44 L20.93,23.81 C20.92,23.81 20.90,23.81 20.89,23.81 C20.20,23.81 19.65,24.36 19.65,25.04 L19.65,25.72 L14.86,29.70 L14.86,16.68 C10.53,18.61 7.19,23.66 7.19,28.47 C7.19,35.14 12.66,41.05 19.34,41.05 L19.63,41.04 L19.63,41.04 L19.65,41.04 L19.65,41.04 L19.66,41.04 L19.67,41.04 L19.68,41.04 L19.69,41.04 L19.69,41.04 L19.70,41.04 L19.73,41.04 L19.73,41.04 L19.74,41.04 L19.75,41.04 L19.75,41.04 L19.76,41.04 L19.77,41.04 L19.78,41.04 L19.78,41.04 L19.79,41.04 L19.79,41.03 L19.80,41.03 L19.81,41.03 L19.82,41.03 L19.82,41.03 L19.84,41.03 L19.85,41.03 L19.85,41.03 L19.86,41.03 L19.89,41.03 L19.89,41.03 L19.90,41.03 L19.90,41.03 L19.90,41.03 L19.91,41.03 L19.91,41.02 L19.93,41.02 L19.93,41.02 L19.95,41.02 L19.95,41.02 L19.97,41.02 L19.97,41.02 L19.99,41.02 L20.00,41.02 L20.01,41.01 L20.02,41.01 L20.02,41.01 L20.04,41.01 L20.04,41.01 L20.06,41.01 L20.06,41.01 L20.08,41.01 L20.08,41.00 L20.10,41.00 L20.12,41.00 L20.12,41.00 L20.14,41.00 L20.14,41.00 L20.15,40.99 L20.16,40.99 L20.17,40.99 L20.19,40.99 L20.20,40.99 L20.21,40.99 L20.24,40.98 L20.25,40.98 L20.26,40.98 L20.26,40.98 L20.32,40.97 L20.32,40.97 L20.38,40.96 L20.38,40.96 C20.62,40.92 20.86,40.86 21.09,40.80 L21.24,40.76 L21.24,40.76 L21.25,40.76 C21.71,40.63 22.14,40.47 22.56,40.28 C23.51,39.80 24.34,39.12 24.99,38.29 C24.94,38.27 24.88,38.24 24.82,38.21 C23.42,37.53 22.12,36.34 20.98,35.29 L20.79,35.12 C20.22,34.60 19.69,34.13 19.18,33.75 C18.69,33.37 18.19,33.07 17.65,32.86 C17.13,32.66 16.56,32.54 15.99,32.49 C15.38,32.44 14.77,32.47 14.23,32.57 C13.18,32.77 12.33,33.25 11.49,33.72 C11.40,33.78 11.30,33.80 11.20,33.80 L11.19,33.80 C10.99,33.79 10.79,33.68 10.70,33.48 C10.60,33.30 10.62,33.08 10.73,32.92 L10.73,32.91 C10.78,32.84 10.84,32.78 10.93,32.73 C11.85,32.20 12.78,31.68 14.02,31.44 C14.44,31.37 14.89,31.32 15.34,31.32 Z M22.13,34.45 C22.44,34.72 22.75,34.98 23.05,35.22 C23.99,35.98 24.90,36.60 25.83,36.96 C26.30,36.00 26.56,34.92 26.56,33.78 C26.56,31.62 25.62,29.67 24.12,28.34 L29.51,28.34 C29.59,28.93 29.64,29.54 29.64,30.15 C29.64,32.81 28.80,35.28 27.38,37.31 C27.54,37.32 27.70,37.33 27.86,37.33 C28.31,37.32 28.76,37.26 29.20,37.14 C32.99,36.13 34.92,30.96 34.92,27.98 C34.92,27.92 34.91,27.87 34.91,27.81 C34.91,27.76 34.92,27.70 34.92,27.65 C34.92,23.44 32.45,19.25 28.58,17.73 L28.40,17.66 L28.39,17.66 L28.20,17.59 L28.20,17.59 L28.15,17.58 L28.14,17.57 C26.96,17.25 25.64,16.81 24.12,16.47 C23.48,16.34 22.81,16.22 22.13,16.12 Z M19.65,21.95 L19.65,15.92 C20.07,15.93 20.50,15.96 20.93,15.99 L20.93,23.19 C20.92,23.19 20.90,23.19 20.89,23.19 C20.20,23.19 19.65,22.63 19.65,21.95 Z M19.65,15.06 L19.65,4.68 C20.05,4.61 20.45,4.52 20.87,4.38 L20.93,4.35 L20.93,15.24 C20.50,15.18 20.07,15.12 19.65,15.06 Z M22.13,15.41 L22.13,3.85 C22.87,3.50 23.67,3.11 24.57,2.83 C25.57,2.52 26.59,2.28 27.66,2.37 L27.91,2.41 C31.23,2.90 33.52,6.44 33.17,9.85 C32.80,13.51 30.02,16.42 26.07,16.02 L26.03,16.01 L26.03,16.01 L25.99,16.01 L25.96,16.00 L25.92,16.00 L25.88,15.99 L25.80,15.98 L25.76,15.98 L25.72,15.97 L25.68,15.96 L25.64,15.96 L25.63,15.96 L25.59,15.95 L25.58,15.95 L25.57,15.95 C25.28,15.91 24.94,15.85 24.53,15.79 C23.87,15.68 23.03,15.55 22.13,15.41 Z"/></g></svg>